<svg width="40" height="40" viewBox="0 0 40 40" fill="none" xmlns="http://www.w3.org/2000/svg">
<circle cx="20" cy="20" r="20" fill="#F2BB13"/>
<path d="M27.95 29C25.8 29 23.7043 28.5207 21.663 27.562C19.6217 26.6033 17.8133 25.3367 16.238 23.762C14.6627 22.1873 13.396 20.379 12.438 18.337C11.48 16.295 11.0007 14.1993 11 12.05C11 11.75 11.1 11.5 11.3 11.3C11.5 11.1 11.75 11 12.05 11H16.1C16.3333 11 16.5417 11.075 16.725 11.225C16.9083 11.375 17.0167 11.5667 17.05 11.8L17.7 15.3C17.7333 15.5333 17.729 15.746 17.687 15.938C17.645 16.13 17.5493 16.3007 17.4 16.45L15 18.9C15.7 20.1 16.575 21.225 17.625 22.275C18.675 23.325 19.8333 24.2333 21.1 25L23.45 22.65C23.6 22.5 23.796 22.3877 24.038 22.313C24.28 22.2383 24.5173 22.2173 24.75 22.25L28.2 22.95C28.4333 23 28.625 23.1127 28.775 23.288C28.925 23.4633 29 23.6673 29 23.9V27.95C29 28.25 28.9 28.5 28.7 28.7C28.5 28.9 28.25 29 27.95 29Z" fill="black"/>
</svg>
