<svg width="40" height="40" viewBox="0 0 40 40" fill="none" xmlns="http://www.w3.org/2000/svg">
<circle cx="20" cy="20" r="20" fill="#F2BB13"/>
<path d="M20 20C20.55 20 21.021 19.804 21.413 19.412C21.805 19.02 22.0007 18.5493 22 18C22 17.45 21.804 16.979 21.412 16.587C21.02 16.195 20.5493 15.9993 20 16C19.45 16 18.979 16.196 18.587 16.588C18.195 16.98 17.9993 17.4507 18 18C18 18.55 18.196 19.021 18.588 19.413C18.98 19.805 19.4507 20.0007 20 20ZM20 30C17.3167 27.7167 15.3127 25.596 13.988 23.638C12.6633 21.68 12.0007 19.8673 12 18.2C12 15.7 12.8043 13.7083 14.413 12.225C16.0217 10.7417 17.884 10 20 10C22.1167 10 23.9793 10.7417 25.588 12.225C27.1967 13.7083 28.0007 15.7 28 18.2C28 19.8667 27.3373 21.6793 26.012 23.638C24.6867 25.5967 22.6827 27.7173 20 30Z" fill="black"/>
</svg>
