<svg width="40" height="40" viewBox="0 0 40 40" fill="none" xmlns="http://www.w3.org/2000/svg">
<circle cx="20" cy="20" r="20" fill="#F2BB13"/>
<path fill-rule="evenodd" clip-rule="evenodd" d="M17.172 21.834L20.002 23.769L22.73 21.887L28.845 27.92C28.684 27.972 28.512 28 28.333 28H11.667C11.447 28 11.237 27.957 11.044 27.88L17.172 21.834ZM30 16.876V26.333C30 26.58 29.946 26.814 29.85 27.025L23.856 21.111L30 16.876ZM10 16.929L16.042 21.061L10.106 26.919C10.0357 26.7316 9.99979 26.5331 10 26.333V16.929ZM28.333 13C29.253 13 30 13.746 30 14.667V15.253L19.998 22.148L10 15.31V14.667C10 13.747 10.746 13 11.667 13H28.333Z" fill="black"/>
</svg>
