<svg width="350" height="231" viewBox="0 0 350 231" fill="none" xmlns="http://www.w3.org/2000/svg">
<g clip-path="url(#clip0_198_39)">
<path d="M200.863 105.589C200.511 107.436 200.09 109.263 199.599 111.072C199.546 111.282 199.486 111.489 199.427 111.699H192.596C192.014 111.7 191.456 111.931 191.045 112.342C190.634 112.754 190.402 113.312 190.402 113.893V133.367C190.195 133.753 189.985 134.135 189.775 134.518C188.69 136.492 187.561 138.445 186.408 140.373C167.597 171.708 141.36 197.929 110.015 216.722L111.871 212.534C111.19 212.487 110.507 212.44 109.827 212.393C95.0147 211.381 80.1524 210.258 65.6882 206.929C50.5564 203.446 35.7538 197.406 23.8946 187.39C12.0323 177.371 3.33635 163.063 2.1294 147.584C1.72695 142.263 2.265 136.914 3.71886 131.781C6.49935 121.9 12.5748 113.009 21.3398 107.749C35.108 99.4888 53.0675 101.172 67.5817 108.044C82.0929 114.912 93.905 126.282 105.438 137.455C93.7937 117.487 77.581 100.564 58.1302 88.0748C51.685 83.9494 44.8448 80.2754 39.3651 74.9305C33.8885 69.5887 29.8476 62.0996 30.8164 54.5101C31.9167 45.9018 38.967 39.3688 46.0297 34.3312C48.8511 32.3186 51.7633 30.4095 54.7665 28.654C63.2399 23.6884 72.4063 19.9422 82.0866 18.5535C95.1997 16.6695 109.363 19.5284 119.416 28.1555C130.742 37.8767 135.388 53.554 134.946 68.5511C141.924 58.4067 152.686 50.6417 164.84 50.3126C177.458 49.974 189.452 57.9459 195.771 68.874C202.088 79.7989 203.223 93.1909 200.863 105.589Z" fill="#E6E6E6"/>
<path d="M136.728 149.002C145.217 148.254 153.059 147.381 161.285 145.053C169.258 142.797 176.931 139.02 182.607 132.853C188.712 126.22 192.007 117.605 194.332 109.029C195.629 104.248 196.694 99.4002 197.699 94.5506C198.79 89.2886 199.759 84.0035 200.606 78.695C202.293 68.1284 203.497 57.4996 204.219 46.8085C204.306 45.5108 204.386 44.2126 204.459 42.9139C204.504 42.1129 203.258 42.1154 203.213 42.9139C202.62 53.4523 201.553 63.9495 200.013 74.4057C198.494 84.6788 196.549 94.9074 194.082 104.996C191.992 113.543 189.286 122.224 183.926 129.339C178.899 136.011 171.639 140.371 163.8 142.978C155.823 145.63 147.413 146.689 139.077 147.477C138.054 147.574 137.752 147.666 136.728 147.756C135.936 147.826 135.929 149.072 136.728 149.002Z" fill="white"/>
<path d="M2.69761 131.613C13.4077 132.207 24.0089 134.075 34.277 137.177C44.5494 140.274 54.421 144.57 63.687 149.979C72.6404 155.209 80.9522 161.467 88.4534 168.626C95.7334 175.578 102.222 183.314 107.8 191.693C113.403 200.094 118.046 209.096 121.643 218.531C122.082 219.686 122.504 220.847 122.911 222.013C123.173 222.766 124.377 222.442 124.112 221.682C120.747 212.048 116.311 202.821 110.887 194.177C105.464 185.531 99.0998 177.514 91.9105 170.27C84.6061 162.915 76.4768 156.427 67.6841 150.937C49.2224 139.437 28.2961 132.48 6.62373 130.637C5.31641 130.527 4.00771 130.437 2.69762 130.367C1.89644 130.323 1.89889 131.569 2.69761 131.613Z" fill="white"/>
<path d="M60.9504 13.698C67.7983 15.8759 74.2891 19.0478 80.2152 23.1121C86.2707 27.2934 91.7933 32.198 96.6608 37.717C101.79 43.5228 106.351 49.8076 110.279 56.4848C114.446 63.535 118.066 70.8945 121.107 78.4985C124.238 86.3052 126.872 94.3024 128.992 102.442C131.147 110.678 132.83 119.031 134.034 127.459C135.231 135.797 135.956 144.197 136.204 152.617C136.455 160.669 136.217 168.729 135.492 176.752C134.828 184.237 133.617 191.663 131.868 198.971C130.314 205.571 128.125 212.005 125.331 218.183C124.683 219.586 123.997 220.968 123.27 222.332C122.893 223.039 123.969 223.669 124.346 222.961C127.434 217.06 129.9 210.853 131.704 204.442C133.728 197.305 135.195 190.021 136.092 182.657C137.086 174.668 137.57 166.623 137.541 158.572C137.524 150.113 137.02 141.663 136.034 133.262C135.046 124.757 133.581 116.314 131.644 107.973C129.712 99.6189 127.261 91.3932 124.305 83.3439C121.457 75.5517 118.046 67.9766 114.1 60.6785C110.342 53.7143 105.962 47.1038 101.014 40.9277C96.3153 35.0472 90.9508 29.731 85.0279 25.0855C79.3167 20.6195 73.0057 16.9791 66.2802 14.2714C64.6368 13.6172 62.9705 13.0257 61.2816 12.4966C60.515 12.2555 60.187 13.4579 60.9504 13.698Z" fill="white"/>
<path d="M134.852 230.414C184.071 230.414 223.972 228.802 223.972 226.813C223.972 224.825 184.071 223.213 134.852 223.213C85.6321 223.213 45.7317 224.825 45.7317 226.813C45.7317 228.802 85.6321 230.414 134.852 230.414Z" fill="#E6E6E6"/>
<path d="M213.59 114.032C213.546 114.227 213.517 114.424 213.504 114.623L198.036 123.546L194.276 121.382L190.268 126.629L198.311 132.362L215.958 118.44C216.678 118.706 217.462 118.747 218.205 118.557C218.949 118.367 219.617 117.956 220.121 117.377C220.624 116.798 220.94 116.079 221.025 115.317C221.111 114.554 220.962 113.783 220.599 113.107C220.236 112.431 219.675 111.882 218.992 111.532C218.309 111.182 217.536 111.048 216.775 111.149C216.014 111.249 215.302 111.579 214.733 112.094C214.164 112.609 213.766 113.285 213.59 114.032Z" fill="#FFB8B8"/>
<path d="M178.363 119.507L190.542 128.188L195.989 121.358L184.15 111.858C183.64 111.449 183.053 111.149 182.423 110.975C181.794 110.801 181.135 110.758 180.489 110.848C179.842 110.937 179.22 111.158 178.661 111.496C178.103 111.835 177.619 112.284 177.24 112.815C176.502 113.852 176.205 115.139 176.415 116.394C176.626 117.649 177.326 118.768 178.363 119.507Z" fill="#F9A826"/>
<path d="M153.221 218.554L157.492 219.672L163.84 203.734L157.537 202.082L153.221 218.554Z" fill="#FFB8B8"/>
<path d="M164.688 225.796L151.267 222.279L152.626 217.094L160.862 219.252C162.237 219.612 163.413 220.504 164.13 221.731C164.848 222.958 165.049 224.42 164.688 225.796Z" fill="#2F2E41"/>
<path d="M191.182 221.594L195.528 220.818L194.602 203.686L188.188 204.832L191.182 221.594Z" fill="#FFB8B8"/>
<path d="M204.63 223.356L190.972 225.796L190.029 220.519L198.41 219.022C199.103 218.898 199.814 218.912 200.501 219.063C201.189 219.213 201.84 219.498 202.418 219.901C202.995 220.303 203.488 220.816 203.867 221.408C204.247 222.001 204.506 222.663 204.63 223.356Z" fill="#2F2E41"/>
<path d="M182.625 95.6045C183.696 95.8652 184.567 96.9563 185.09 98.2205C185.573 99.5482 185.899 100.927 186.064 102.331C186.475 104.944 186.87 107.772 186.019 110.192C185.023 113.029 182.367 114.515 180.064 113.816C177.761 113.118 175.929 110.498 175.303 107.481C174.733 104.433 175.1 101.284 176.356 98.4488C177.01 96.9591 177.912 95.5848 179.111 94.9126C179.698 94.5571 180.399 94.4374 181.072 94.5776C181.744 94.7177 182.339 95.1073 182.736 95.6681" fill="#2F2E41"/>
<path d="M188.684 142.914L196.957 217.017L190.124 219.612L177.521 169.92L159.975 215.355L152.496 215.77C152.496 215.77 162.758 145.075 170.363 143.468L188.684 142.914Z" fill="#2F2E41"/>
<path d="M181.735 105.061C186.619 105.061 190.579 101.102 190.579 96.2174C190.579 91.333 186.619 87.3734 181.735 87.3734C176.85 87.3734 172.891 91.333 172.891 96.2174C172.891 101.102 176.85 105.061 181.735 105.061Z" fill="#FFB8B8"/>
<path d="M185.53 108.772L175.973 107.525C175.973 107.525 169.74 115.005 170.156 127.886C170.571 140.767 169.117 144.715 169.117 144.715L189.044 145.075C186.163 141.114 198.212 118.365 185.53 108.772Z" fill="#F9A826"/>
<path d="M190.664 146.875C190.465 146.877 190.266 146.894 190.07 146.927L177.843 133.911L179.09 129.756L173.064 127.055L169.324 136.197L186.915 150.189C186.821 150.951 186.96 151.723 187.315 152.403C187.67 153.084 188.224 153.64 188.903 153.998C189.582 154.356 190.353 154.499 191.115 154.407C191.877 154.316 192.594 153.995 193.169 153.486C193.744 152.978 194.15 152.307 194.334 151.562C194.519 150.817 194.472 150.034 194.2 149.316C193.928 148.598 193.444 147.98 192.813 147.544C192.181 147.108 191.432 146.875 190.664 146.875Z" fill="#FFB8B8"/>
<path d="M177.273 113.835L171.61 127.678L179.505 131.418L186.044 117.719C186.325 117.129 186.483 116.489 186.508 115.836C186.533 115.183 186.424 114.533 186.189 113.923C185.954 113.314 185.597 112.759 185.139 112.293C184.682 111.827 184.135 111.459 183.53 111.211C182.947 110.973 182.323 110.852 181.693 110.854C181.063 110.857 180.439 110.984 179.858 111.228C179.277 111.471 178.75 111.827 178.306 112.274C177.863 112.722 177.512 113.252 177.273 113.835Z" fill="#F9A826"/>
<path d="M179.421 104.258C180.807 103.458 180.955 101.53 180.766 99.9412C180.578 98.3525 180.263 96.5815 181.197 95.2825C182.312 93.7321 184.551 93.7013 186.46 93.6507C188.368 93.6001 190.693 93.0412 191.187 91.197C191.514 89.9784 190.815 88.6707 189.812 87.9058C188.808 87.1408 187.553 86.8027 186.333 86.4813C183.604 85.7623 180.786 85.0373 177.991 85.4324C175.224 85.8238 172.721 87.2893 171.025 89.5117C169.33 91.7342 168.577 94.5349 168.931 97.3079C169.383 100.855 170.039 102.404 169.609 103.968C168.807 106.881 165.348 108.753 165.28 111.773C165.226 114.136 167.313 115.959 169.349 117.159C170.964 118.11 172.707 118.918 174.569 119.141C176.43 119.363 178.434 118.937 179.821 117.675C181.609 116.048 182.052 113.33 181.539 110.967C181.026 108.604 179.711 106.505 178.409 104.468" fill="#2F2E41"/>
<path d="M316.617 130.17C316.576 130.17 316.551 130.169 316.542 130.168L311.657 130.169V129.449H316.559C316.673 129.453 318.988 129.518 321.122 126.929C324.301 123.071 326.912 113.52 321.295 89.9291C313.742 58.2075 320.042 30.1833 323.101 19.607C323.251 19.0837 323.278 18.5326 323.179 17.9971C323.08 17.4616 322.858 16.9565 322.531 16.5216C322.203 16.0868 321.779 15.7341 321.291 15.4914C320.804 15.2487 320.266 15.1227 319.722 15.1234H246.778C246.224 15.1241 245.677 15.2556 245.183 15.5072C244.689 15.7587 244.261 16.1233 243.934 16.5713C242.638 18.3537 240.86 21.778 239.747 27.9697L239.038 27.8424C240.175 21.5162 242.011 17.9912 243.351 16.1479C243.745 15.6081 244.261 15.1688 244.856 14.8657C245.452 14.5625 246.11 14.4041 246.778 14.4032H319.722C320.378 14.4026 321.025 14.5545 321.613 14.8471C322.2 15.1397 322.711 15.5648 323.106 16.0889C323.501 16.6131 323.769 17.2218 323.888 17.8671C324.007 18.5124 323.974 19.1765 323.792 19.8071C320.749 30.3285 314.483 58.2073 321.996 89.7624C327.692 113.685 324.953 123.443 321.653 127.417C319.477 130.037 317.079 130.17 316.617 130.17Z" fill="#3C3A44"/>
<path d="M303.474 143.313C303.433 143.313 303.408 143.312 303.399 143.311L298.514 143.312V142.592H303.416C303.53 142.595 305.845 142.661 307.979 140.072C311.158 136.214 313.769 126.663 308.152 103.072C300.599 71.3505 306.899 43.3262 309.958 32.7499C310.108 32.2267 310.135 31.6755 310.036 31.1401C309.937 30.6046 309.715 30.0995 309.388 29.6646C309.06 29.2297 308.636 28.877 308.148 28.6343C307.661 28.3917 307.123 28.2657 306.579 28.2663H233.635C233.081 28.267 232.534 28.3985 232.04 28.6501C231.546 28.9017 231.118 29.2662 230.791 29.7142C229.495 31.4967 227.717 34.921 226.604 41.1126L225.895 40.9854C227.032 34.6592 228.868 31.1341 230.208 29.2908C230.602 28.7511 231.118 28.3118 231.713 28.0086C232.309 27.7055 232.967 27.547 233.635 27.5461H306.579C307.235 27.5455 307.882 27.6975 308.47 27.99C309.057 28.2826 309.568 28.7077 309.963 29.2319C310.358 29.756 310.626 30.3648 310.745 31.01C310.864 31.6553 310.831 32.3195 310.649 32.95C307.606 43.4715 301.34 71.3503 308.853 102.905C314.549 126.828 311.81 136.586 308.51 140.56C306.334 143.18 303.936 143.313 303.474 143.313Z" fill="#2D1D61"/>
<path d="M290.704 156.367C290.663 156.367 290.637 156.366 290.628 156.365L218.809 156.366C218.118 156.367 217.436 156.198 216.825 155.875C216.214 155.551 215.691 155.083 215.303 154.511C214.915 153.939 214.673 153.28 214.598 152.593C214.523 151.905 214.618 151.21 214.874 150.568C217.48 144.057 220.988 128.438 215.209 96.9735C208.385 59.8203 214.495 46.3931 217.438 42.3447C217.832 41.8049 218.347 41.3656 218.943 41.0625C219.538 40.7593 220.197 40.6009 220.865 40.6H293.809C294.465 40.5993 295.112 40.7513 295.699 41.0439C296.287 41.3364 296.798 41.7616 297.193 42.2857C297.588 42.8098 297.855 43.4186 297.974 44.0639C298.093 44.7092 298.061 45.3733 297.879 46.0038C294.836 56.5253 288.569 84.4041 296.082 115.959C301.778 139.882 299.04 149.64 295.74 153.613C293.563 156.234 291.165 156.367 290.704 156.367ZM220.865 41.3201C220.31 41.3209 219.764 41.4524 219.27 41.7039C218.775 41.9555 218.347 42.3201 218.02 42.768C215.132 46.7414 209.144 59.9645 215.918 96.8434C221.438 126.901 218.761 142.795 215.542 150.835C215.326 151.366 215.244 151.942 215.306 152.512C215.367 153.082 215.569 153.627 215.894 154.099C216.216 154.576 216.651 154.966 217.159 155.236C217.667 155.505 218.234 155.646 218.809 155.646H290.646C290.759 155.651 293.075 155.715 295.208 153.126C298.388 149.268 300.999 139.717 295.382 116.126C287.829 84.4043 294.128 56.3801 297.187 45.8037C297.338 45.2805 297.365 44.7294 297.266 44.1939C297.167 43.6584 296.945 43.1533 296.617 42.7184C296.29 42.2835 295.865 41.9308 295.378 41.6882C294.89 41.4455 294.353 41.3195 293.809 41.3201H220.865Z" fill="#3F3D56"/>
<path d="M281.029 73.0964H223.776C223.012 73.0964 222.279 72.7929 221.739 72.2527C221.199 71.7124 220.896 70.9797 220.896 70.2157C220.896 69.4517 221.199 68.719 221.739 68.1788C222.279 67.6386 223.012 67.3351 223.776 67.3351H281.029C281.793 67.3351 282.526 67.6386 283.066 68.1788C283.606 68.719 283.91 69.4517 283.91 70.2157C283.91 70.9797 283.606 71.7124 283.066 72.2527C282.526 72.7929 281.793 73.0964 281.029 73.0964Z" fill="#F9A826"/>
<path d="M281.029 85.3392H223.776C223.012 85.3392 222.279 85.0357 221.739 84.4955C221.199 83.9552 220.896 83.2225 220.896 82.4585C220.896 81.6945 221.199 80.9618 221.739 80.4216C222.279 79.8814 223.012 79.5779 223.776 79.5779H281.029C281.793 79.5779 282.526 79.8814 283.066 80.4216C283.606 80.9618 283.91 81.6945 283.91 82.4585C283.91 83.2225 283.606 83.9552 283.066 84.4955C282.526 85.0357 281.793 85.3392 281.029 85.3392Z" fill="#3C3A44"/>
<path d="M281.029 97.5818H223.776C223.012 97.5818 222.279 97.2784 221.739 96.7381C221.199 96.1979 220.896 95.4652 220.896 94.7012C220.896 93.9372 221.199 93.2045 221.739 92.6643C222.279 92.1241 223.012 91.8206 223.776 91.8206H281.029C281.793 91.8206 282.526 92.1241 283.066 92.6643C283.606 93.2045 283.91 93.9372 283.91 94.7012C283.91 95.4652 283.606 96.1979 283.066 96.7381C282.526 97.2784 281.793 97.5818 281.029 97.5818Z" fill="#3C3A44"/>
<path d="M285.35 109.825H228.097C227.333 109.825 226.6 109.521 226.06 108.981C225.52 108.441 225.216 107.708 225.216 106.944C225.216 106.18 225.52 105.447 226.06 104.907C226.6 104.367 227.333 104.063 228.097 104.063H285.35C286.114 104.063 286.846 104.367 287.387 104.907C287.927 105.447 288.23 106.18 288.23 106.944C288.23 107.708 287.927 108.441 287.387 108.981C286.846 109.521 286.114 109.825 285.35 109.825Z" fill="#3C3A44"/>
<path d="M285.35 122.067H228.097C227.333 122.067 226.6 121.764 226.06 121.224C225.52 120.683 225.216 119.951 225.216 119.187C225.216 118.423 225.52 117.69 226.06 117.15C226.6 116.61 227.333 116.306 228.097 116.306H285.35C286.114 116.306 286.846 116.61 287.387 117.15C287.927 117.69 288.23 118.423 288.23 119.187C288.23 119.951 287.927 120.683 287.387 121.224C286.846 121.764 286.114 122.067 285.35 122.067Z" fill="#3C3A44"/>
<path d="M250.782 60.8537H223.776C223.012 60.8537 222.279 60.5502 221.739 60.01C221.199 59.4698 220.896 58.737 220.896 57.9731C220.896 57.2091 221.199 56.4764 221.739 55.9361C222.279 55.3959 223.012 55.0924 223.776 55.0924H250.782C251.546 55.0924 252.279 55.3959 252.819 55.9361C253.359 56.4764 253.663 57.2091 253.663 57.9731C253.663 58.737 253.359 59.4698 252.819 60.01C252.279 60.5502 251.546 60.8537 250.782 60.8537Z" fill="#F9A826"/>
<rect x="256" y="173" width="40" height="40" rx="20" fill="#D8D8D8"/>
<path d="M287.729 188.204H287.72L282.761 190.322L275.974 193.22C275.948 193.231 275.919 193.237 275.891 193.237C275.862 193.237 275.833 193.232 275.807 193.221L268.806 190.316L263.724 188.208L263.716 188.204H263.707C263.627 188.205 263.55 188.236 263.494 188.293C263.437 188.35 263.405 188.427 263.405 188.507V201.641C263.405 201.721 263.437 201.798 263.494 201.855C263.55 201.911 263.627 201.943 263.707 201.943H287.729C287.809 201.943 287.886 201.911 287.943 201.855C287.999 201.798 288.031 201.721 288.031 201.641V188.507C288.031 188.427 287.999 188.35 287.943 188.293C287.886 188.236 287.809 188.205 287.729 188.204Z" fill="white"/>
<path d="M287.75 188.291C287.742 188.291 287.733 188.288 287.726 188.283L275.777 179.962C275.741 179.937 275.698 179.923 275.653 179.923C275.609 179.923 275.566 179.937 275.53 179.962L263.667 188.283C263.658 188.29 263.646 188.292 263.635 188.29C263.624 188.288 263.614 188.282 263.607 188.272C263.601 188.263 263.598 188.252 263.6 188.24C263.602 188.229 263.608 188.219 263.618 188.212L275.48 179.892C275.531 179.856 275.591 179.837 275.653 179.837C275.715 179.837 275.776 179.856 275.827 179.891L287.775 188.212C287.783 188.217 287.788 188.225 287.791 188.234C287.794 188.242 287.794 188.252 287.792 188.261C287.789 188.269 287.783 188.277 287.776 188.283C287.769 188.288 287.76 188.291 287.75 188.291Z" fill="#3F3D56"/>
<path d="M264.345 188.586L275.665 180.196L287.071 189.183L276.248 195.599L270.373 194.259L264.345 188.586Z" fill="#E6E6E6"/>
<path d="M270.869 199.561H265.276C265.242 199.561 265.208 199.555 265.176 199.542C265.145 199.529 265.116 199.509 265.091 199.485C265.067 199.461 265.048 199.432 265.034 199.401C265.021 199.369 265.014 199.335 265.014 199.3C265.014 199.266 265.021 199.232 265.034 199.2C265.047 199.169 265.067 199.14 265.091 199.115C265.115 199.091 265.144 199.072 265.176 199.059C265.207 199.046 265.241 199.039 265.276 199.039H270.869C270.903 199.039 270.937 199.045 270.969 199.058C271.001 199.072 271.03 199.091 271.054 199.115C271.078 199.139 271.098 199.168 271.111 199.2C271.124 199.231 271.131 199.265 271.131 199.3C271.131 199.334 271.124 199.368 271.111 199.4C271.098 199.432 271.079 199.46 271.054 199.485C271.03 199.509 271.001 199.528 270.97 199.541C270.938 199.555 270.904 199.561 270.87 199.561H270.869Z" fill="#F9A826"/>
<path d="M267.283 198.438H265.276C265.242 198.438 265.208 198.432 265.176 198.419C265.145 198.405 265.116 198.386 265.091 198.362C265.067 198.338 265.048 198.309 265.034 198.277C265.021 198.246 265.014 198.212 265.014 198.177C265.014 198.143 265.021 198.109 265.034 198.077C265.047 198.045 265.067 198.017 265.091 197.992C265.115 197.968 265.144 197.949 265.176 197.936C265.207 197.922 265.241 197.916 265.276 197.916H267.283C267.352 197.916 267.418 197.943 267.467 197.992C267.516 198.041 267.544 198.107 267.544 198.177C267.544 198.246 267.517 198.312 267.468 198.361C267.419 198.41 267.353 198.438 267.284 198.438H267.283Z" fill="#F9A826"/>
<path d="M275.825 193.259C275.782 193.259 275.74 193.251 275.701 193.234L268.719 190.338V181.27C268.719 181.19 268.751 181.113 268.808 181.056C268.865 181 268.941 180.968 269.022 180.968H282.415C282.495 180.968 282.572 181 282.629 181.056C282.685 181.113 282.717 181.19 282.717 181.27V190.344L282.704 190.35L275.952 193.233C275.912 193.25 275.868 193.259 275.825 193.259Z" fill="#F9A826"/>
<path d="M287.664 188.204H287.656L282.696 190.322L275.91 193.22C275.883 193.231 275.855 193.237 275.826 193.237C275.797 193.237 275.769 193.232 275.742 193.221L268.741 190.316L263.659 188.208L263.651 188.204H263.643C263.563 188.205 263.486 188.236 263.429 188.293C263.372 188.35 263.34 188.427 263.34 188.507V201.641C263.34 201.721 263.372 201.798 263.429 201.855C263.486 201.911 263.563 201.943 263.643 201.943H287.664C287.745 201.943 287.821 201.911 287.878 201.855C287.935 201.798 287.967 201.721 287.967 201.641V188.507C287.967 188.427 287.935 188.35 287.878 188.293C287.821 188.236 287.745 188.205 287.664 188.204ZM287.88 201.641C287.88 201.698 287.858 201.753 287.817 201.794C287.777 201.834 287.722 201.857 287.664 201.857H263.643C263.585 201.857 263.531 201.834 263.49 201.794C263.45 201.753 263.427 201.698 263.427 201.641V188.507C263.427 188.451 263.448 188.397 263.487 188.357C263.526 188.317 263.579 188.293 263.635 188.291L268.741 190.41L275.709 193.301C275.784 193.332 275.869 193.331 275.944 193.3L282.696 190.416L287.673 188.291C287.729 188.293 287.781 188.317 287.82 188.357C287.859 188.398 287.88 188.451 287.88 188.507L287.88 201.641Z" fill="#3F3D56"/>
<path d="M274.738 184.357H269.985C269.894 184.357 269.806 184.321 269.741 184.256C269.676 184.191 269.64 184.103 269.64 184.012C269.64 183.92 269.676 183.832 269.741 183.767C269.806 183.703 269.894 183.666 269.985 183.666H274.738C274.829 183.666 274.917 183.703 274.982 183.767C275.046 183.832 275.083 183.92 275.083 184.012C275.083 184.103 275.046 184.191 274.982 184.256C274.917 184.321 274.829 184.357 274.738 184.357Z" fill="white"/>
<path d="M272.275 182.888H269.985C269.893 182.888 269.805 182.852 269.741 182.787C269.676 182.722 269.639 182.634 269.639 182.543C269.639 182.451 269.676 182.363 269.741 182.298C269.805 182.233 269.893 182.197 269.985 182.197H272.275C272.367 182.197 272.454 182.233 272.519 182.298C272.584 182.363 272.62 182.451 272.62 182.543C272.62 182.634 272.584 182.722 272.519 182.787C272.454 182.852 272.367 182.888 272.275 182.888Z" fill="white"/>
<path d="M279.273 187.814H272.014C271.923 187.814 271.835 187.777 271.77 187.712C271.705 187.648 271.669 187.56 271.669 187.468C271.669 187.376 271.705 187.288 271.77 187.224C271.835 187.159 271.923 187.122 272.014 187.122H279.273C279.364 187.122 279.452 187.159 279.517 187.224C279.582 187.288 279.618 187.376 279.618 187.468C279.618 187.56 279.582 187.648 279.517 187.712C279.452 187.777 279.364 187.814 279.273 187.814Z" fill="white"/>
<path d="M279.273 189.412H272.014C271.969 189.412 271.924 189.403 271.882 189.386C271.84 189.369 271.802 189.343 271.77 189.311C271.738 189.279 271.712 189.241 271.695 189.199C271.677 189.157 271.668 189.112 271.668 189.067C271.668 189.021 271.677 188.976 271.695 188.934C271.712 188.892 271.738 188.854 271.77 188.822C271.802 188.79 271.84 188.764 271.882 188.747C271.924 188.73 271.969 188.721 272.014 188.721H279.273C279.318 188.721 279.363 188.73 279.405 188.747C279.447 188.764 279.485 188.79 279.518 188.822C279.55 188.854 279.575 188.892 279.593 188.934C279.61 188.976 279.619 189.021 279.619 189.067C279.619 189.112 279.61 189.157 279.593 189.199C279.575 189.241 279.55 189.279 279.518 189.311C279.485 189.343 279.447 189.369 279.405 189.386C279.363 189.403 279.318 189.412 279.273 189.412Z" fill="white"/>
<rect x="166" width="40" height="40" rx="20" fill="#D8D8D8"/>
<path d="M197.898 26.7113L193.439 22.3088C193.221 22.0928 192.964 21.9218 192.681 21.8055C192.397 21.6892 192.094 21.63 191.788 21.6312H191.772C191.463 21.6321 191.158 21.6942 190.874 21.8139C190.589 21.9336 190.332 22.1084 190.115 22.3284C189.118 23.3375 188.551 24.6938 188.533 26.1122C188.515 27.5307 189.048 28.9008 190.019 29.9347C190.066 29.9857 190.115 30.0346 190.164 30.0836C190.435 30.3532 190.735 30.5928 191.057 30.7984C191.939 31.368 192.967 31.6693 194.016 31.6659H194.05C194.77 31.6635 195.483 31.5182 196.147 31.2385C196.81 30.9589 197.412 30.5503 197.917 30.0366C198.355 29.5926 198.599 28.9932 198.595 28.3699C198.591 27.7465 198.341 27.15 197.898 26.7113ZM197.639 29.7604C196.811 30.5945 195.721 31.1177 194.553 31.2418C193.384 31.3659 192.208 31.0834 191.224 30.4419C190.942 30.2556 190.679 30.0424 190.438 29.8055C189.477 28.8565 188.933 27.5648 188.925 26.2143C188.916 24.8639 189.444 23.5655 190.393 22.6046C190.574 22.4208 190.789 22.2747 191.026 22.1748C191.264 22.075 191.518 22.0233 191.776 22.0229H191.788C192.043 22.022 192.295 22.0714 192.531 22.1681C192.767 22.2649 192.982 22.4072 193.162 22.5869L197.622 26.9913C197.991 27.3564 198.2 27.853 198.203 28.3722C198.207 28.8914 198.004 29.3907 197.639 29.7604Z" fill="#3F3D56"/>
<path d="M183.267 12.2623L178.808 7.8579C178.369 7.42242 177.775 7.17875 177.157 7.18031H177.143C176.834 7.18155 176.528 7.24397 176.244 7.36396C175.959 7.48396 175.701 7.65915 175.484 7.87943C174.66 8.71657 174.126 9.79572 173.959 10.9587C173.793 12.1217 174.003 13.3074 174.56 14.3421L174.562 14.344C174.792 14.7672 175.077 15.1578 175.41 15.5053C175.447 15.5484 175.49 15.5915 175.533 15.6346C176.557 16.6511 177.943 17.2201 179.385 17.2169H179.421C180.141 17.2139 180.854 17.0682 181.518 16.7882C182.182 16.5082 182.783 16.0995 183.288 15.5856C183.505 15.366 183.677 15.1058 183.793 14.8199C183.909 14.5341 183.968 14.2281 183.966 13.9195C183.964 13.6109 183.901 13.3057 183.781 13.0213C183.661 12.737 183.487 12.4791 183.267 12.2623ZM183.008 15.3115C182.54 15.7883 181.981 16.1676 181.365 16.4274C180.749 16.6873 180.087 16.8225 179.419 16.8253H179.385C178.381 16.8249 177.4 16.5276 176.564 15.9708C175.728 15.4139 175.076 14.6224 174.689 13.6958C174.302 12.7692 174.197 11.7488 174.389 10.7631C174.58 9.77727 175.059 8.87008 175.764 8.15558C176.129 7.78645 176.626 7.57728 177.145 7.57398C177.664 7.57067 178.164 7.7735 178.533 8.13795L182.993 12.5404C183.362 12.9061 183.57 13.4032 183.573 13.9227C183.576 14.4421 183.373 14.9416 183.008 15.3115Z" fill="#3F3D56"/>
<path d="M198.183 28.0952L193.267 23.2397C192.944 22.922 192.509 22.7451 192.056 22.748C191.604 22.7508 191.171 22.933 190.852 23.2546C190.454 23.657 190.139 24.134 189.925 24.6582C189.711 25.1825 189.603 25.7438 189.606 26.3099C189.609 26.8761 189.724 27.4361 189.944 27.9579C190.164 28.4797 190.484 28.9531 190.887 29.351C191.29 29.7488 191.767 30.0634 192.291 30.2767C192.816 30.4899 193.377 30.5977 193.944 30.5939C194.51 30.5901 195.07 30.4747 195.591 30.2543C196.113 30.034 196.586 29.713 196.983 29.3097L198.183 28.0952Z" fill="#F9A826"/>
<path d="M183.553 13.6456L178.637 8.79008C178.314 8.4724 177.879 8.29556 177.426 8.29837C176.974 8.30118 176.541 8.48341 176.223 8.80506C175.824 9.20746 175.509 9.68441 175.295 10.2087C175.081 10.7329 174.973 11.2942 174.976 11.8604C174.979 12.4265 175.094 12.9865 175.314 13.5083C175.534 14.0301 175.854 14.5035 176.257 14.9014C176.66 15.2992 177.137 15.6138 177.662 15.8271C178.186 16.0404 178.747 16.1482 179.314 16.1443C179.88 16.1405 180.44 16.0251 180.961 15.8048C181.483 15.5844 181.956 15.2634 182.353 14.8601L183.553 13.6456Z" fill="#F9A826"/>
<path d="M192.781 31.1195L192.663 31.4289C192.111 31.2194 191.576 31.0092 191.057 30.7983C181.876 27.0519 177.494 22.6671 174.562 14.3441L174.56 14.3421C174.421 13.9504 174.286 13.5496 174.155 13.1397L174.464 13.0398C174.567 13.4341 174.719 13.8142 174.914 14.1717C175.075 14.628 175.24 15.0726 175.41 15.5054C178.165 22.5301 182.229 26.5447 190.019 29.9347C190.411 30.105 190.812 30.2741 191.224 30.4419C191.701 30.753 192.227 30.982 192.781 31.1195Z" fill="#3F3D56"/>
<path d="M178.726 16.8607L178.451 17.1394L188.622 27.1854L188.897 26.9067L178.726 16.8607Z" fill="#3F3D56"/>
</g>
<defs>
<clipPath id="clip0_198_39">
<rect width="350" height="230.414" fill="white"/>
</clipPath>
</defs>
</svg>
